# Blender v2.79 (sub 0) OBJ File: ''
# www.blender.org
mtllib untitled.mtl
o Cube
v -7.923769 0.025762 7.911556
v -7.923769 0.025762 -7.911556
v 7.923769 0.025762 -7.911555
v 7.923766 0.025762 7.911559
v -7.923772 -0.025762 7.911552
v -7.923763 -0.025762 -7.911561
v 7.923771 -0.025762 -7.911553
v 7.923768 -0.025762 7.911556
vn 0.0000 1.0000 0.0000
vn 0.0000 -1.0000 0.0000
vn -1.0000 -0.0000 -0.0000
vn 0.0000 0.0000 -1.0000
vn 1.0000 0.0000 0.0000
vn -0.0000 -0.0001 1.0000
usemtl Material
s off
f 1//1 4//1 3//1 2//1
f 5//2 6//2 7//2 8//2
f 1//3 2//3 6//3 5//3
f 2//4 3//4 7//4 6//4
f 3//5 4//5 8//5 7//5
f 5//6 8//6 4//6 1//6
