# Blender v2.78 (sub 0) OBJ File: ''
# www.blender.org
mtllib untitled.mtl
o ArrowA_Arrow
v 0.000000 0.500000 4.000000
v 0.000000 -0.000000 5.000000
v 0.353553 0.353553 4.000000
v 0.500000 -0.000000 4.000000
v 0.353553 -0.353554 4.000000
v 0.000000 -0.500000 4.000000
v -0.353553 -0.353553 4.000000
v -0.500000 -0.000000 4.000000
v -0.353553 0.353553 4.000000
v 0.000000 0.229402 4.000000
v 0.162212 0.162212 4.000000
v 0.229402 -0.000000 4.000000
v 0.162212 -0.162212 4.000000
v 0.000000 -0.229402 4.000000
v -0.162212 -0.162212 4.000000
v -0.229402 -0.000000 4.000000
v -0.162212 0.162211 4.000000
v 0.000000 0.229402 0.000000
v 0.162212 0.162212 0.000000
v 0.229402 0.000000 0.000000
v 0.162212 -0.162212 -0.000000
v 0.000000 -0.229402 -0.000000
v -0.162212 -0.162212 -0.000000
v -0.229402 0.000000 0.000000
v -0.162212 0.162212 0.000000
vn -0.8387 0.3474 0.4194
vn 0.3474 0.8387 0.4194
vn -0.8387 -0.3474 0.4194
vn -0.3474 -0.8387 0.4194
vn 0.3474 -0.8387 0.4194
vn 0.8387 -0.3474 0.4194
vn -0.3474 0.8387 0.4194
vn 0.8387 0.3474 0.4194
vn -0.3827 0.9239 0.0000
vn -0.0000 0.0000 -1.0000
vn -0.9239 0.3827 0.0000
vn -0.9239 -0.3827 -0.0000
vn -0.3827 -0.9239 -0.0000
vn 0.3827 -0.9239 -0.0000
vn 0.9239 -0.3827 -0.0000
vn 0.9239 0.3827 0.0000
vn 0.3827 0.9239 0.0000
usemtl Material.001
s off
f 8//1 2//1 9//1
f 1//2 2//2 3//2
f 7//3 2//3 8//3
f 6//4 2//4 7//4
f 5//5 2//5 6//5
f 4//6 2//6 5//6
f 9//7 2//7 1//7
f 3//8 2//8 4//8
f 17//9 10//9 18//9
f 10//10 1//10 3//10
f 12//10 11//10 3//10
f 12//10 4//10 5//10
f 14//10 13//10 5//10
f 14//10 6//10 7//10
f 16//10 15//10 7//10
f 17//10 16//10 8//10
f 10//10 17//10 9//10
f 24//10 21//10 22//10
f 16//11 17//11 25//11
f 15//12 16//12 24//12
f 14//13 15//13 23//13
f 13//14 14//14 22//14
f 12//15 13//15 21//15
f 11//16 12//16 20//16
f 10//17 11//17 19//17
f 25//9 17//9 18//9
f 11//10 10//10 3//10
f 4//10 12//10 3//10
f 13//10 12//10 5//10
f 6//10 14//10 5//10
f 15//10 14//10 7//10
f 8//10 16//10 7//10
f 9//10 17//10 8//10
f 1//10 10//10 9//10
f 25//10 18//10 19//10
f 19//10 20//10 21//10
f 23//10 24//10 22//10
f 25//10 21//10 24//10
f 25//10 19//10 21//10
f 24//11 16//11 25//11
f 23//12 15//12 24//12
f 22//13 14//13 23//13
f 21//14 13//14 22//14
f 20//15 12//15 21//15
f 19//16 11//16 20//16
f 18//17 10//17 19//17
